<?xml version="1.0" encoding="UTF-8"?>
<svg width="32px" height="32px" viewBox="0 0 32 32" version="1.1" xmlns="http://www.w3.org/2000/svg">
    <g fill="#F7931A">
        <path d="M16,32 C24.8365564,32 32,24.8365564 32,16 C32,7.16344357 24.8365564,0 16,0 C7.16344357,0 0,7.16344357 0,16 C0,24.8365564 7.16344357,32 16,32 Z"/>
    </g>
    <path d="M22.5,13.9772727 C22.7936508,11.6875 21.0674603,10.5568182 18.7301587,9.82954545 L19.4920635,6.86363636 L17.6507937,6.375 L16.9126984,9.25 C16.4126984,9.13636364 15.8968254,9.02272727 15.3809524,8.91477273 L16.126984,6.01704545 L14.2857143,5.52840909 L13.5238095,8.48863636 C13.1031746,8.40340909 12.6984127,8.31818182 12.3174603,8.22727273 L12.3206349,8.21590909 L9.80952381,7.54545455 L9.28571429,9.51136364 C9.28571429,9.51136364 10.6349206,9.82954545 10.6031746,9.85227273 C11.3333333,10.0454545 11.4761905,10.5227273 11.4603175,10.9090909 L10.5873016,14.2613636 C10.6507937,14.2784091 10.7301587,14.3011364 10.8174603,14.3352273 L10.5873016,14.2727273 L9.33333333,19.0568182 C9.23809524,19.2897727 8.99206349,19.6363636 8.49206349,19.4829545 C8.51269841,19.5170455 7.17460317,19.1420455 7.17460317,19.1420455 L6.19047619,21.2443182 L8.55555556,21.875 C9.01587302,22 9.46031746,22.125 9.89682539,22.2443182 L9.12698413,25.25 L10.9682540,25.7386364 L11.7301587,22.7727273 C12.2539683,22.9090909 12.7619048,23.0340909 13.2539683,23.1477273 L12.4952381,26.0965909 L14.3365079,26.5852273 L15.1063492,23.5852273 C18.2380952,24.1477273 20.6190476,23.9034091 21.6031746,21.0795455 C22.3968254,18.8125 21.5555556,17.5 19.8888889,16.6477273 C21.1428571,16.3579545 22.0793651,15.5397727 22.5,13.9772727 Z M18.0793651,19.7897727 C17.5158730,22.0568182 13.6190476,20.7443182 12.3015873,20.4204545 L13.3333333,16.4431818 C14.6507937,16.7727273 18.6666667,17.4261364 18.0793651,19.7897727 Z M18.6428571,13.9431818 C18.1269841,16.0170455 14.8888889,14.8863636 13.7936508,14.6136364 L14.7301587,11.0113636 C15.8253968,11.2840909 19.1825397,11.7727273 18.6428571,13.9431818 Z" fill="white"/>
</svg> 